<svg xmlns="http://www.w3.org/2000/svg" version="1.1" xmlns:xlink="http://www.w3.org/1999/xlink" xmlns:svgjs="http://svgjs.dev/svgjs" width="1500" height="306" viewBox="0 0 1500 306"><g transform="matrix(1,0,0,1,-0.9090909090909918,-0.6853764468665133)"><svg viewBox="0 0 396 81" data-background-color="#ffffff" preserveAspectRatio="xMidYMid meet" height="306" width="1500" xmlns="http://www.w3.org/2000/svg" xmlns:xlink="http://www.w3.org/1999/xlink"><g id="tight-bounds" transform="matrix(1,0,0,1,0.2400000000000091,0.18142317711172495)"><svg viewBox="0 0 395.52 80.63715364577655" height="80.63715364577655" width="395.52"><g><svg viewBox="0 0 519.5343272731875 105.92073567097286" height="80.63715364577655" width="395.52"><g transform="matrix(1,0,0,1,124.01432727318746,14.638828157131563)"><svg viewBox="0 0 395.52000000000004 76.64307935670973" height="76.64307935670973" width="395.52000000000004"><g id="textblocktransform"><svg viewBox="0 0 395.52000000000004 76.64307935670973" height="76.64307935670973" width="395.52000000000004" id="textblock"><g><svg viewBox="0 0 395.52000000000004 76.64307935670973" height="76.64307935670973" width="395.52000000000004"><g transform="matrix(1,0,0,1,0,0)"><svg width="395.52000000000004" viewBox="0.5 -36.25 189.63 36.75" height="76.64307935670973" data-palette-color="#6d9b7c"><path d="M0.5-33.85L24.1-33.85 23.35-29.35 14.95-29.35 14.95 0 9.05 0 9.05-29.35 0.5-29.35 0.5-33.85ZM44-23.85L44-12.05Q44-9.05 44.37-7.03 44.75-5 45.2-3.75L45.2-3.75Q45.75-2.25 46.4-1.4L46.4-1.4 41.95 0.4Q41.3-0.25 40.75-1.15L40.75-1.15Q40.3-1.95 39.9-3.08 39.5-4.2 39.4-5.75L39.4-5.75Q38.55-2.75 36.67-1.23 34.8 0.3 31.6 0.3L31.6 0.3Q29.25 0.3 27.52-0.58 25.8-1.45 24.65-3.08 23.5-4.7 22.95-7 22.4-9.3 22.4-12.1L22.4-12.1Q22.4-14.95 23.27-17.38 24.15-19.8 25.72-21.55 27.3-23.3 29.5-24.3 31.7-25.3 34.35-25.3L34.35-25.3Q35.85-25.3 37.47-25.08 39.1-24.85 40.5-24.6 41.9-24.35 42.87-24.13 43.85-23.9 44-23.85L44-23.85ZM32.55-3.7Q33.8-3.7 34.85-4.55 35.9-5.4 36.67-6.78 37.45-8.15 37.87-9.93 38.3-11.7 38.3-13.55L38.3-13.55 38.3-20.75Q37.8-20.9 36.8-21.1 35.8-21.3 35-21.3L35-21.3Q33.1-21.3 31.87-20.65 30.65-20 29.9-18.85 29.15-17.7 28.85-16.1 28.55-14.5 28.55-12.6L28.55-12.6Q28.55-10.85 28.65-9.25 28.75-7.65 29.17-6.4 29.6-5.15 30.4-4.42 31.2-3.7 32.55-3.7L32.55-3.7ZM58.05-25.5L58.05-25.5Q59.5-25.5 60.9-25.2 62.3-24.9 63.4-24.5L63.4-24.5Q64.7-24.05 65.8-23.55L65.8-23.55 64.1-19.65Q63.1-20.1 62.1-20.45L62.1-20.45Q61.25-20.75 60.22-21.03 59.2-21.3 58.2-21.3L58.2-21.3Q57.05-21.3 56.22-20.75 55.4-20.2 55.4-19.1L55.4-19.1Q55.4-16.25 59.55-14.65L59.55-14.65Q61.1-14.05 62.35-13.38 63.6-12.7 64.47-11.8 65.35-10.9 65.8-9.73 66.25-8.55 66.25-6.95L66.25-6.95Q66.25-5.55 65.67-4.2 65.1-2.85 63.97-1.8 62.85-0.75 61.22-0.13 59.6 0.5 57.55 0.5L57.55 0.5Q55.9 0.5 54.3 0.13 52.7-0.25 51.42-0.7 50.15-1.15 49.4-1.55L49.4-1.55 48.65-1.9 50.5-6.1 51.15-5.75Q51.8-5.35 52.8-4.9 53.8-4.45 54.95-4.08 56.1-3.7 57.05-3.7L57.05-3.7Q58.8-3.7 59.65-4.4 60.5-5.1 60.5-6.25L60.5-6.25Q60.5-7.55 59.57-8.63 58.65-9.7 56.8-10.4L56.8-10.4Q52.95-11.85 51.27-13.7 49.6-15.55 49.6-18.5L49.6-18.5Q49.6-19.9 50.25-21.18 50.9-22.45 52.02-23.43 53.15-24.4 54.7-24.95 56.25-25.5 58.05-25.5ZM68.54-20.85L68.54-24.9 73.04-24.9 74.04-30.75 78.74-31.8 78.74-24.9 84.89-24.9 84.19-20.85 78.74-20.85 78.74-6.05Q78.74-4.75 79.44-4.38 80.14-4 80.99-4L80.99-4Q81.69-4 82.39-4.1 83.09-4.2 83.64-4.35L83.64-4.35Q84.29-4.5 84.89-4.7L84.89-4.7 85.84-0.95 85.39-0.8Q84.94-0.6 84.07-0.38 83.19-0.15 82.02 0.03 80.84 0.2 79.44 0.2L79.44 0.2Q78.04 0.2 76.87-0.1 75.69-0.4 74.84-1.07 73.99-1.75 73.52-2.8 73.04-3.85 73.04-5.4L73.04-5.4 73.04-20.85 68.54-20.85ZM87.09-11.85Q87.09-15.2 88.02-17.75 88.94-20.3 90.57-22.03 92.19-23.75 94.39-24.63 96.59-25.5 99.14-25.5L99.14-25.5Q101.39-25.5 102.97-24.95 104.54-24.4 105.54-23.45 106.54-22.5 107.02-21.2 107.49-19.9 107.49-18.4L107.49-18.4Q107.49-16.6 106.49-14.98 105.49-13.35 103.62-12.13 101.74-10.9 99.09-10.18 96.44-9.45 93.14-9.4L93.14-9.4Q93.29-8.25 93.62-7.23 93.94-6.2 94.57-5.43 95.19-4.65 96.19-4.2 97.19-3.75 98.69-3.75L98.69-3.75Q99.79-3.75 101.04-4 102.29-4.25 103.34-4.6L103.34-4.6Q104.59-5 105.79-5.5L105.79-5.5 107.29-1.95Q105.99-1.3 104.49-0.8L104.49-0.8Q103.19-0.35 101.49 0 99.79 0.35 97.89 0.35L97.89 0.35Q94.99 0.35 92.94-0.53 90.89-1.4 89.59-3 88.29-4.6 87.69-6.85 87.09-9.1 87.09-11.85L87.09-11.85ZM98.69-21.6Q97.04-21.6 95.97-20.83 94.89-20.05 94.24-18.82 93.59-17.6 93.32-16.07 93.04-14.55 92.99-13L92.99-13Q95.39-13.1 97.07-13.63 98.74-14.15 99.79-14.93 100.84-15.7 101.32-16.6 101.79-17.5 101.79-18.4L101.79-18.4Q101.79-19.85 100.94-20.73 100.09-21.6 98.69-21.6L98.69-21.6ZM112.19 0L112.19-33.85Q112.54-33.85 113.79-33.88 115.04-33.9 116.59-33.9 118.14-33.9 119.69-33.93 121.24-33.95 122.24-33.95L122.24-33.95Q128.04-33.95 131.06-31.65 134.09-29.35 134.09-25.15L134.09-25.15Q134.09-22.7 132.74-20.75 131.39-18.8 128.99-17.6L128.99-17.6Q131.99-16.45 133.56-14.35 135.14-12.25 135.14-9.5L135.14-9.5Q135.14-5.2 131.89-2.58 128.64 0.05 122.04 0.05L122.04 0.05Q120.69 0.05 119.14 0.05 117.59 0.05 116.19 0.03 114.79 0 113.71 0 112.64 0 112.19 0L112.19 0ZM118.14-15.15L118.14-4.25 122.44-4.25Q125.84-4.25 127.31-5.78 128.79-7.3 128.79-9.6L128.79-9.6Q128.79-10.65 128.46-11.65 128.14-12.65 127.34-13.45 126.54-14.25 125.21-14.73 123.89-15.2 121.89-15.2L121.89-15.2Q120.69-15.2 119.76-15.2 118.84-15.2 118.14-15.15L118.14-15.15ZM118.14-29.65L118.14-19.45 121.99-19.45Q125.14-19.45 126.49-20.9 127.84-22.35 127.84-24.45L127.84-24.45Q127.84-25.4 127.54-26.35 127.24-27.3 126.51-28.05 125.79-28.8 124.56-29.25 123.34-29.7 121.49-29.7L121.49-29.7Q120.39-29.7 119.56-29.7 118.74-29.7 118.14-29.65L118.14-29.65ZM154.99-12.7L154.99-24.9 160.69-24.9 160.69-12.05Q160.69-9.05 161.06-7.03 161.44-5 161.89-3.75L161.89-3.75Q162.44-2.25 163.09-1.4L163.09-1.4 158.64 0.4Q158.04-0.15 157.54-1L157.54-1Q157.14-1.7 156.71-2.73 156.29-3.75 156.14-5.15L156.14-5.15Q154.79-2.2 152.34-0.95 149.89 0.3 147.24 0.3L147.24 0.3Q143.29 0.3 141.61-2 139.94-4.3 139.94-8.3L139.94-8.3 139.94-24.9 145.64-24.9 145.64-8.4Q145.64-6.3 146.39-5.1 147.14-3.9 148.94-3.9L148.94-3.9Q150.04-3.9 151.11-4.53 152.19-5.15 153.06-6.3 153.94-7.45 154.46-9.08 154.99-10.7 154.99-12.7L154.99-12.7ZM190.13-1.4L185.68 0.4Q185.58 0.35 185.23-0.08 184.88-0.5 184.46-1.25 184.03-2 183.63-3.13 183.23-4.25 183.13-5.75L183.13-5.75Q182.28-2.75 180.41-1.23 178.53 0.3 175.33 0.3L175.33 0.3Q172.98 0.3 171.26-0.58 169.53-1.45 168.38-3.08 167.23-4.7 166.68-7 166.13-9.3 166.13-12.1L166.13-12.1Q166.13-14.95 167.01-17.38 167.88-19.8 169.46-21.55 171.03-23.3 173.23-24.3 175.43-25.3 178.08-25.3L178.08-25.3Q178.98-25.3 180.01-25.2 181.03-25.1 182.03-24.95L182.03-24.95 182.03-36.25 187.73-35.25 187.73-12.05Q187.73-9.05 188.08-7.08 188.43-5.1 188.88-3.88 189.33-2.65 189.71-2.1 190.08-1.55 190.13-1.4L190.13-1.4ZM176.28-3.75Q177.53-3.75 178.58-4.6 179.63-5.45 180.41-6.83 181.18-8.2 181.61-9.95 182.03-11.7 182.03-13.55L182.03-13.55 182.03-20.75Q181.53-20.9 180.53-21.1 179.53-21.3 178.73-21.3L178.73-21.3Q176.83-21.3 175.61-20.65 174.38-20 173.63-18.85 172.88-17.7 172.58-16.1 172.28-14.5 172.28-12.6L172.28-12.6Q172.28-10.85 172.38-9.25 172.48-7.65 172.91-6.43 173.33-5.2 174.13-4.48 174.93-3.75 176.28-3.75L176.28-3.75Z" opacity="1" transform="matrix(1,0,0,1,0,0)" fill="#6d9b7c" class="wordmark-text-0" data-fill-palette-color="primary" id="text-0"></path></svg></g></svg></g></svg></g></svg></g><g><svg viewBox="0 0 105.92073567097286 105.92073567097286" height="105.92073567097286" width="105.92073567097286"><g><svg xmlns="http://www.w3.org/2000/svg" xmlns:xlink="http://www.w3.org/1999/xlink" version="1.1" x="0" y="0" viewBox="0 0 100 100" enable-background="new 0 0 100 100" xml:space="preserve" height="105.92073567097286" width="105.92073567097286" class="icon-icon-0" data-fill-palette-color="accent" id="icon-0"><g fill="#6d9b7c" data-fill-palette-color="accent"></g><g fill="#6d9b7c" data-fill-palette-color="accent"><g fill="#6d9b7c" data-fill-palette-color="accent"><path d="M40.004 62.747h-3.843c-0.156 0-0.285 0.128-0.285 0.285v1.287c0 0.157 0.129 0.285 0.285 0.285h3.843c0.158 0 0.287-0.128 0.287-0.286v-1.286C40.291 62.874 40.162 62.747 40.004 62.747zM44.126 59.943c-0.11-0.111-0.292-0.112-0.403-0.001l-0.911 0.91c-0.111 0.111-0.11 0.293 0 0.404l2.718 2.717c0.111 0.112 0.292 0.112 0.404 0.001l0.911-0.91c0.11-0.111 0.11-0.292-0.001-0.403L44.126 59.943zM43.526 63.813c-0.111-0.111-0.292-0.11-0.403 0.001l-2.718 2.717c-0.11 0.111-0.112 0.292 0 0.403l0.909 0.91c0.112 0.112 0.293 0.111 0.404 0l2.717-2.717c0.112-0.111 0.112-0.293 0.001-0.404L43.526 63.813zM33.871 63.157h-1.287c-0.156 0-0.285 0.129-0.284 0.287v3.843c0 0.157 0.128 0.285 0.285 0.285h1.287c0.157 0 0.285-0.128 0.285-0.285v-3.843C34.157 63.286 34.029 63.157 33.871 63.157zM53.403 65.94H49.56c-0.158 0-0.287 0.128-0.287 0.284v1.287c0 0.158 0.129 0.286 0.287 0.286h3.843c0.157 0 0.285-0.128 0.285-0.285v-1.287C53.688 66.067 53.56 65.94 53.403 65.94zM25.238 22.333l48.117 4.67c0.251 0.024 0.475-0.16 0.5-0.411l0.069-0.707c0.024-0.251-0.161-0.476-0.412-0.5l-48.117-4.67c-0.25-0.024-0.474 0.16-0.498 0.412l-0.069 0.707C24.803 22.084 24.988 22.309 25.238 22.333zM25.088 30.109h29.448c-0.211 0.406-0.341 0.861-0.341 1.352 0 1.095 0.599 2.042 1.481 2.559-0.882 0.517-1.481 1.463-1.481 2.559 0 1.096 0.599 2.042 1.481 2.559-0.871 0.511-1.463 1.44-1.478 2.518h-0.003c0 0.007 0.001 0.013 0.002 0.02 0 0.007-0.002 0.014-0.002 0.021 0 0.034 0.009 0.066 0.01 0.1 0.005 0.111 0.014 0.221 0.032 0.328 0.016 0.109 0.038 0.214 0.066 0.318 0 0.001 0.001 0.002 0.001 0.003 0.2 0.759 0.691 1.391 1.35 1.782-0.869 0.52-1.458 1.458-1.458 2.544 0 1.096 0.599 2.042 1.481 2.559-0.882 0.517-1.481 1.463-1.481 2.559 0 1.562 1.208 2.828 2.738 2.951l0.316-0.009h0.35l0.177 0c0.251 0 0.459-0.205 0.458-0.458v-0.726c0-0.253-0.206-0.458-0.458-0.458h-0.529c-0.007 0-0.008 0.002-0.014 0.002-0.052 0.004-0.183 0.011-0.174 0.012-0.697-0.06-1.222-0.623-1.222-1.314 0-0.47 0.25-0.897 0.67-1.142 0.503-0.295 0.811-0.834 0.811-1.417 0-0.583-0.309-1.122-0.812-1.416-0.419-0.245-0.669-0.672-0.669-1.142 0-0.47 0.25-0.897 0.669-1.142 0.503-0.295 0.812-0.834 0.812-1.417s-0.309-1.122-0.812-1.417c-0.413-0.242-0.659-0.66-0.666-1.121 0.007-0.461 0.253-0.88 0.667-1.122 0.503-0.295 0.811-0.834 0.811-1.417 0-0.583-0.309-1.122-0.812-1.416-0.419-0.245-0.669-0.672-0.669-1.142 0-0.47 0.25-0.897 0.669-1.142 0.503-0.295 0.812-0.834 0.812-1.417s-0.309-1.122-0.812-1.417c-0.419-0.245-0.669-0.672-0.669-1.142 0-0.693 0.527-1.257 1.226-1.315 0.044 0 0.547 0.004 0.547 0.004v-0.008h0.072l0.003 0h0.784c-0.201 0.398-0.325 0.841-0.325 1.319 0 1.095 0.599 2.042 1.48 2.559-0.882 0.517-1.48 1.463-1.48 2.559 0 1.096 0.599 2.042 1.48 2.559-0.87 0.511-1.462 1.44-1.478 2.518h-0.003c0 0.007 0.001 0.013 0.002 0.02 0 0.007-0.002 0.014-0.002 0.021 0 0.034 0.009 0.066 0.01 0.1 0.005 0.111 0.014 0.221 0.032 0.328 0.016 0.109 0.038 0.214 0.066 0.318 0 0.001 0.001 0.002 0.001 0.003 0.2 0.759 0.69 1.391 1.35 1.782-0.869 0.52-1.458 1.458-1.458 2.544 0 1.096 0.599 2.042 1.48 2.559-0.882 0.517-1.48 1.463-1.48 2.559 0 1.562 1.207 2.828 2.738 2.951l0.316-0.009h0.35l0.176 0c0.251 0 0.459-0.205 0.458-0.458v-0.726c0-0.253-0.207-0.458-0.458-0.458h-0.529c-0.007 0-0.008 0.002-0.014 0.002-0.052 0.004-0.183 0.011-0.174 0.012-0.697-0.06-1.222-0.623-1.222-1.314 0-0.47 0.25-0.897 0.67-1.142 0.503-0.295 0.811-0.834 0.811-1.417 0-0.583-0.309-1.122-0.812-1.416-0.419-0.245-0.669-0.672-0.669-1.142 0-0.47 0.25-0.897 0.669-1.142 0.503-0.295 0.812-0.834 0.812-1.417s-0.309-1.122-0.812-1.417c-0.412-0.242-0.659-0.66-0.666-1.121 0.007-0.461 0.254-0.88 0.667-1.122 0.503-0.295 0.811-0.834 0.811-1.417 0-0.583-0.309-1.122-0.812-1.416-0.419-0.245-0.669-0.672-0.669-1.142 0-0.47 0.25-0.897 0.669-1.142 0.503-0.295 0.812-0.834 0.812-1.417s-0.309-1.122-0.812-1.417c-0.419-0.245-0.669-0.672-0.669-1.142 0-0.693 0.527-1.257 1.226-1.315 0.044 0 0.547 0.004 0.547 0.004v-0.008h0.858c-0.201 0.398-0.324 0.841-0.324 1.319 0 1.095 0.599 2.042 1.481 2.559-0.882 0.517-1.481 1.463-1.481 2.559 0 1.096 0.599 2.042 1.481 2.559-0.871 0.511-1.463 1.44-1.478 2.518h-0.003c0 0.007 0.001 0.013 0.002 0.02 0 0.007-0.002 0.014-0.002 0.021 0 0.034 0.009 0.066 0.01 0.1 0.005 0.111 0.014 0.221 0.032 0.328 0.016 0.109 0.038 0.214 0.066 0.318 0 0.001 0.001 0.002 0.001 0.003 0.2 0.759 0.691 1.391 1.35 1.782-0.869 0.52-1.458 1.458-1.458 2.544 0 1.096 0.599 2.042 1.481 2.559-0.882 0.517-1.481 1.463-1.481 2.559 0 1.562 1.208 2.828 2.738 2.951l0.316-0.009h0.35l0.176 0c0.252 0 0.459-0.205 0.458-0.458v-0.726c0-0.253-0.207-0.458-0.458-0.458h-0.529c-0.007 0-0.008 0.002-0.014 0.002-0.052 0.004-0.183 0.011-0.174 0.012-0.696-0.06-1.222-0.623-1.222-1.314 0-0.47 0.25-0.897 0.67-1.142 0.502-0.295 0.811-0.834 0.811-1.417 0-0.583-0.309-1.122-0.812-1.416-0.419-0.245-0.669-0.672-0.669-1.142 0-0.47 0.25-0.897 0.669-1.142 0.502-0.295 0.812-0.834 0.812-1.417s-0.309-1.122-0.812-1.417c-0.412-0.242-0.659-0.66-0.666-1.121 0.007-0.461 0.254-0.88 0.667-1.122 0.502-0.295 0.811-0.834 0.811-1.417 0-0.583-0.309-1.122-0.812-1.416-0.419-0.245-0.669-0.672-0.669-1.142 0-0.47 0.25-0.897 0.669-1.142 0.502-0.295 0.812-0.834 0.812-1.417s-0.309-1.122-0.812-1.417c-0.419-0.245-0.669-0.672-0.669-1.142 0-0.693 0.526-1.257 1.226-1.315 0.044 0 0.547 0.004 0.547 0.004v-0.008h0.858c-0.201 0.398-0.324 0.841-0.324 1.319 0 1.095 0.599 2.042 1.481 2.559-0.882 0.517-1.481 1.463-1.481 2.559 0 1.096 0.599 2.042 1.481 2.559-0.871 0.511-1.463 1.44-1.478 2.518H66.04c0 0.007 0.001 0.013 0.002 0.02 0 0.007-0.002 0.014-0.002 0.021 0 0.034 0.009 0.066 0.01 0.1 0.005 0.111 0.014 0.221 0.032 0.328 0.016 0.109 0.038 0.214 0.066 0.318 0 0.001 0.001 0.002 0.001 0.003 0.2 0.759 0.691 1.391 1.35 1.782-0.869 0.52-1.458 1.458-1.458 2.544 0 1.096 0.599 2.042 1.481 2.559-0.882 0.517-1.481 1.463-1.481 2.559 0 1.562 1.208 2.828 2.738 2.951l0.316-0.009h0.35l0.176 0c0.251 0 0.459-0.205 0.458-0.458v-0.726c0-0.253-0.207-0.458-0.458-0.458h-0.529c-0.007 0-0.008 0.002-0.014 0.002-0.052 0.004-0.183 0.011-0.174 0.012-0.696-0.06-1.222-0.623-1.222-1.314 0-0.47 0.25-0.897 0.67-1.142 0.503-0.295 0.811-0.834 0.811-1.417 0-0.583-0.309-1.122-0.812-1.416-0.419-0.245-0.669-0.672-0.669-1.142 0-0.47 0.25-0.897 0.669-1.142 0.503-0.295 0.812-0.834 0.812-1.417s-0.309-1.122-0.812-1.417c-0.412-0.242-0.659-0.66-0.666-1.121 0.007-0.461 0.254-0.88 0.667-1.122 0.503-0.295 0.811-0.834 0.811-1.417 0-0.583-0.309-1.122-0.812-1.416-0.419-0.245-0.669-0.672-0.669-1.142 0-0.47 0.25-0.897 0.669-1.142 0.503-0.295 0.812-0.834 0.812-1.417s-0.309-1.122-0.812-1.417c-0.419-0.245-0.669-0.672-0.669-1.142 0-0.693 0.526-1.257 1.226-1.315 0.044 0 0.547 0.004 0.547 0.004v-0.008h0.858c-0.201 0.398-0.324 0.842-0.324 1.319 0 1.095 0.599 2.042 1.481 2.559-0.882 0.517-1.481 1.463-1.481 2.559 0 1.096 0.599 2.042 1.481 2.559-0.871 0.511-1.463 1.44-1.478 2.518h-0.003c0 0.007 0.001 0.013 0.002 0.02 0 0.007-0.002 0.014-0.002 0.021 0 0.034 0.008 0.066 0.01 0.1 0.005 0.111 0.014 0.221 0.032 0.328 0.016 0.109 0.038 0.214 0.066 0.318 0 0.001 0.001 0.002 0.001 0.003 0.2 0.759 0.691 1.391 1.35 1.782-0.869 0.52-1.458 1.458-1.458 2.544 0 1.096 0.599 2.042 1.481 2.559-0.882 0.517-1.481 1.463-1.481 2.559 0 1.562 1.208 2.828 2.738 2.951l0.316-0.009h0.35l0.176 0c0.251 0 0.459-0.205 0.458-0.458v-0.726c0-0.253-0.206-0.458-0.458-0.458h-0.529c-0.007 0-0.008 0.002-0.014 0.002-0.052 0.004-0.183 0.011-0.174 0.012-0.696-0.06-1.222-0.623-1.222-1.314 0-0.47 0.25-0.897 0.67-1.142 0.503-0.295 0.811-0.834 0.811-1.417 0-0.583-0.309-1.122-0.812-1.416-0.419-0.245-0.669-0.672-0.669-1.142 0-0.47 0.25-0.897 0.669-1.142 0.503-0.295 0.812-0.834 0.812-1.417s-0.309-1.122-0.812-1.417c-0.412-0.242-0.659-0.66-0.666-1.121 0.007-0.461 0.254-0.88 0.667-1.122 0.503-0.295 0.811-0.834 0.811-1.417 0-0.583-0.309-1.122-0.812-1.416-0.419-0.245-0.669-0.672-0.669-1.142 0-0.47 0.25-0.897 0.669-1.142 0.503-0.295 0.812-0.834 0.812-1.417s-0.309-1.122-0.812-1.417c-0.419-0.245-0.669-0.672-0.669-1.142 0-0.693 0.527-1.257 1.226-1.315 0.044 0 0.547 0.004 0.547 0.004v-0.008h0.176c0.251 0 0.459-0.205 0.458-0.458v-0.718c0-0.253-0.206-0.458-0.458-0.458H57.046c-0.005 0-0.005 0.001-0.01 0.001l-0.103 0c-0.04 0.003-0.077 0.016-0.116 0.021-0.059-0.028-0.124-0.046-0.193-0.046H25.088c-0.251 0-0.457 0.205-0.457 0.458v0.711C24.632 29.904 24.837 30.109 25.088 30.109zM88.947 56.717H49.926c0.184 0.125 0.354 0.264 0.52 0.408 0.03 0.027 0.065 0.049 0.095 0.076 0.161 0.146 0.308 0.306 0.451 0.472 0.026 0.031 0.057 0.057 0.083 0.089 0.142 0.173 0.271 0.363 0.394 0.559 0.02 0.03 0.043 0.056 0.062 0.088 0.139 0.23 0.264 0.475 0.376 0.737h0.036c0.316 0 0.62 0.012 0.916 0.031 0.103 0.007 0.201 0.017 0.301 0.026 0.19 0.017 0.377 0.037 0.558 0.061 0.112 0.015 0.222 0.032 0.33 0.051 0.171 0.029 0.337 0.063 0.5 0.099 0.095 0.021 0.192 0.041 0.284 0.065 0.246 0.064 0.486 0.134 0.713 0.217h26.759c-1.523 1.759-3.066 4.522-4.087 8.814-1.151 4.855-2.59 7.778-4.191 9.393-1.596 1.601-3.367 2.148-5.914 2.167h-4.154c0.918-0.892 1.797-2.022 2.566-3.449 0.989-1.838 2.54-2.834 3.913-3.393 0.636-0.259 1.219-0.413 1.656-0.502h2.479c0.251 0 0.458-0.205 0.458-0.458v-2.062c0-0.251-0.206-0.457-0.458-0.457h-6.047c-0.553-1.468-1.468-2.675-2.718-3.474-1.537-0.992-3.436-1.379-5.612-1.38h-0.181c-0.631 0-1.234 0.035-1.81 0.106-0.566-1.369-1.465-2.491-2.659-3.247-1.331-0.849-2.931-1.25-4.748-1.34-0.662-1.146-1.615-2.058-2.777-2.651-1.425-0.735-3.105-1.031-5.007-1.031h-0.181c-2.148 0-4.033 0.381-5.551 1.342-0.455-0.041-0.924-0.06-1.41-0.06h-0.18c-2.56-0.002-4.764 0.545-6.391 1.967-1.359 1.189-2.156 2.884-2.47 4.944-1.832 0.11-3.441 0.543-4.766 1.445-1.185 0.799-2.052 1.966-2.585 3.38h-6.968c-0.253 0-0.459 0.205-0.459 0.457v2.062c0 0.253 0.206 0.458 0.459 0.458h2.481c1.362 0.284 4.154 1.208 5.564 3.895 2.588 4.808 6.427 6.312 8.826 6.307h28.329c0.339 0 0.708-0.034 1.096-0.099h9.305c0.036 0 0.072 0 0.108 0 2.913 0 5.643-0.799 7.776-2.995 2.155-2.209 3.687-5.597 4.905-10.686 1.138-4.768 2.869-7.163 4.201-8.386 0.628-0.575 1.169-0.889 1.553-1.067h2.291c0.251 0 0.458-0.205 0.458-0.458v-2.062C89.405 56.922 89.198 56.717 88.947 56.717zM23.62 68.644c0.911-0.626 2.279-0.993 4.197-0.992h0.158c0.012 0 0.046 0.002 0.1 0.002 0.728 0 1.331-0.568 1.376-1.295 0.143-2.212 0.754-3.502 1.669-4.307 0.916-0.809 2.373-1.281 4.573-1.283h0.18c0.576 0 1.105 0.033 1.587 0.097 0.361 0.048 0.725-0.049 1.015-0.268 0.916-0.7 2.324-1.11 4.358-1.11h0.181c1.617-0.002 2.855 0.262 3.739 0.723 0.885 0.468 1.473 1.092 1.916 2.102 0.217 0.509 0.714 0.838 1.268 0.838h0.037c1.84-0.002 3.179 0.339 4.083 0.924 0.901 0.589 1.502 1.413 1.876 2.832 0.186 0.729 0.923 1.174 1.655 1 0.692-0.165 1.497-0.254 2.427-0.254h0.181c1.858-0.002 3.204 0.344 4.113 0.935 0.462 0.307 0.845 0.678 1.159 1.16h-42.92C22.842 69.295 23.197 68.938 23.62 68.644zM57.699 80.169H29.382c-1.324-0.005-4.25-0.871-6.398-4.856-0.583-1.055-1.284-1.899-2.028-2.585 0.002-0.001 0.004-0.002 0.005-0.003h45.163c-0.745 0.686-1.446 1.531-2.03 2.587C61.949 79.298 59.022 80.163 57.699 80.169z" fill="#6d9b7c" data-fill-palette-color="accent"></path></g></g></svg></g></svg></g></svg></g><defs></defs></svg><rect width="395.52" height="80.63715364577655" fill="none" stroke="none" visibility="hidden"></rect></g></svg></g></svg>